<svg xmlns="http://www.w3.org/2000/svg" version="1.1" xmlns:xlink="http://www.w3.org/1999/xlink" xmlns:svgjs="http://svgjs.dev/svgjs" viewBox="0 0 800 800" opacity="1"><defs><linearGradient x1="50%" y1="0%" x2="50%" y2="100%" id="cccoil-grad"><stop stop-color="hsl(37, 99%, 67%)" stop-opacity="1" offset="0%"></stop><stop stop-color="hsl(316, 73%, 52%)" stop-opacity="1" offset="100%"></stop></linearGradient></defs><g stroke="url(#cccoil-grad)" fill="none" stroke-linecap="square"><circle r="372" cx="400" cy="400" stroke-width="7" stroke-dasharray="1589 2337" transform="rotate(360, 400, 400)" stroke-dashoffset="71" opacity="0.71"></circle><circle r="356.5" cx="400" cy="400" stroke-width="7" stroke-dasharray="1457 2240" transform="rotate(344, 400, 400)" stroke-dashoffset="71" opacity="0.82"></circle><circle r="341" cx="400" cy="400" stroke-width="7" stroke-dasharray="1330 2143" transform="rotate(329, 400, 400)" stroke-dashoffset="71" opacity="0.28"></circle><circle r="325.5" cx="400" cy="400" stroke-width="7" stroke-dasharray="1209 2045" transform="rotate(313, 400, 400)" stroke-dashoffset="71" opacity="0.94"></circle><circle r="310" cx="400" cy="400" stroke-width="7" stroke-dasharray="1094 1948" transform="rotate(297, 400, 400)" stroke-dashoffset="71" opacity="0.08"></circle><circle r="294.5" cx="400" cy="400" stroke-width="7" stroke-dasharray="985 1850" transform="rotate(282, 400, 400)" stroke-dashoffset="71" opacity="0.24"></circle><circle r="279" cx="400" cy="400" stroke-width="7" stroke-dasharray="881 1753" transform="rotate(266, 400, 400)" stroke-dashoffset="71" opacity="0.41"></circle><circle r="263.5" cx="400" cy="400" stroke-width="7" stroke-dasharray="783 1656" transform="rotate(250, 400, 400)" stroke-dashoffset="71" opacity="0.52"></circle><circle r="248" cx="400" cy="400" stroke-width="7" stroke-dasharray="691 1558" transform="rotate(235, 400, 400)" stroke-dashoffset="71" opacity="0.28"></circle><circle r="232.5" cx="400" cy="400" stroke-width="7" stroke-dasharray="605 1461" transform="rotate(219, 400, 400)" stroke-dashoffset="71" opacity="0.19"></circle><circle r="217" cx="400" cy="400" stroke-width="7" stroke-dasharray="524 1363" transform="rotate(203, 400, 400)" stroke-dashoffset="71" opacity="0.46"></circle><circle r="201.5" cx="400" cy="400" stroke-width="7" stroke-dasharray="449 1266" transform="rotate(188, 400, 400)" stroke-dashoffset="71" opacity="0.12"></circle><circle r="186" cx="400" cy="400" stroke-width="7" stroke-dasharray="380 1169" transform="rotate(172, 400, 400)" stroke-dashoffset="71" opacity="0.87"></circle><circle r="170.5" cx="400" cy="400" stroke-width="7" stroke-dasharray="317 1071" transform="rotate(157, 400, 400)" stroke-dashoffset="71" opacity="0.76"></circle><circle r="155" cx="400" cy="400" stroke-width="7" stroke-dasharray="259 974" transform="rotate(141, 400, 400)" stroke-dashoffset="71" opacity="0.41"></circle><circle r="139.5" cx="400" cy="400" stroke-width="7" stroke-dasharray="207 877" transform="rotate(125, 400, 400)" stroke-dashoffset="71" opacity="0.22"></circle><circle r="124" cx="400" cy="400" stroke-width="7" stroke-dasharray="161 779" transform="rotate(110, 400, 400)" stroke-dashoffset="71" opacity="0.58"></circle><circle r="108.5" cx="400" cy="400" stroke-width="7" stroke-dasharray="121 682" transform="rotate(94, 400, 400)" stroke-dashoffset="71" opacity="0.09"></circle><circle r="93" cx="400" cy="400" stroke-width="7" stroke-dasharray="86 584" transform="rotate(78, 400, 400)" stroke-dashoffset="71" opacity="0.15"></circle><circle r="77.5" cx="400" cy="400" stroke-width="7" stroke-dasharray="58 487" transform="rotate(63, 400, 400)" stroke-dashoffset="71" opacity="0.20"></circle><circle r="62" cx="400" cy="400" stroke-width="7" stroke-dasharray="35 390" transform="rotate(47, 400, 400)" stroke-dashoffset="71" opacity="0.63"></circle><circle r="46.5" cx="400" cy="400" stroke-width="7" stroke-dasharray="17 292" transform="rotate(31, 400, 400)" stroke-dashoffset="71" opacity="0.11"></circle><circle r="31" cx="400" cy="400" stroke-width="7" stroke-dasharray="6 195" transform="rotate(16, 400, 400)" stroke-dashoffset="71" opacity="0.20"></circle><circle r="15.5" cx="400" cy="400" stroke-width="7" stroke-dasharray="0 97" stroke-dashoffset="71" opacity="0.35"></circle></g></svg>