<svg xmlns="http://www.w3.org/2000/svg" version="1.1" xmlns:xlink="http://www.w3.org/1999/xlink" xmlns:svgjs="http://svgjs.dev/svgjs" viewBox="0 0 800 800"><defs><linearGradient x1="50%" y1="0%" x2="50%" y2="100%" id="ccchaos-grad"><stop stop-color="hsl(206, 75%, 49%)" stop-opacity="1" offset="0%"></stop><stop stop-color="hsl(331, 90%, 56%)" stop-opacity="1" offset="100%"></stop></linearGradient></defs><g stroke-width="2.5" stroke="url(#ccchaos-grad)" fill="none" stroke-linecap="round"><path d="M389.91 24.45Q398.15 29 406.42 35.03 414.76 42.58 423.17 51.52 431.68 61.54 440.31 72.17 449.06 82.86 457.96 93.01 467.03 102.05 476.27 109.54 485.7 115.17 495.33 118.87 505.17 120.77 515.22 121.25 525.5 120.86 536 120.28 546.72 120.24 557.67 121.44 568.83 124.46 580.21 129.7 591.8 137.28 603.58 147.09 615.54 158.71 627.66 171.52 639.94 184.73 652.34 197.46 664.85 208.87 677.45 218.25 690.11 225.08 702.81 229.16 715.51 230.58 728.2 229.74 733.25 241.47 737.66 253.2 741.29 264.94 744.01 276.67 745.73 288.4 746.38 300.13 745.94 311.86 744.43 323.6 741.91 335.33 738.45 347.06 734.18 358.79 729.25 370.52 723.82 382.26 718.08 393.99 712.24 405.72 706.5 417.45 701.05 429.19 696.08 440.92 691.77 452.65 688.26 464.38 685.68 476.11 684.11 487.85 683.61 499.58 684.2 511.31 685.85 523.04 688.51 534.78 692.09 546.51 696.47 558.24 701.48 569.97 706.96 581.71 712.72 593.44 718.56 605.17 711.52 624.82 704.34 640.39 689.42 652.17 673.93 647.14 665.82 636.83 657.48 624.55 648.91 612.31 640.09 602.19 631.04 596.04 621.74 595.27 612.2 600.72 602.42 612.49 592.41 629.97 582.17 651.9 571.73 676.45 561.09 701.5 550.26 724.82 539.26 744.36 528.11 758.48 516.83 766.12 505.43 766.98 493.93 761.52 482.36 750.94 470.73 737.04 459.06 722.03 447.37 708.28 435.69 698.03 424.02 693.17 412.4 694.98 400.83 703.98 392.59 709.15 384.26 719.72 375.82 733.79 367.26 749.08 358.57 763.18 349.74 773.86 340.78 779.31 331.67 778.33 322.41 770.48 313.01 756.08 303.47 736.22 293.79 712.57 283.97 687.24 274.03 662.46 263.96 640.41 253.79 622.9 243.51 611.21 233.15 605.94 222.7 606.96 212.2 613.42 201.63 623.86 191.03 636.39 180.41 648.92 169.76 659.39 159.12 665.97 148.49 667.35 137.88 662.8 127.3 652.28 116.77 636.42 106.28 616.46 95.86 594.09 85.51 571.23 84.65 560.03 83.8 548.83 83 537.63 82.26 526.43 81.62 515.23 81.09 504.03 80.7 492.83 80.46 481.63 80.37 470.43 80.45 459.23 80.68 448.03 81.06 436.83 81.57 425.63 82.21 414.43 82.94 403.23 83.74 392.03 84.58 380.83 85.44 369.63 86.28 358.43 87.08 347.23 87.8 336.03 88.43 324.83 88.94 313.63 89.31 302.43 89.53 291.23 89.6 280.03 89.5 268.83 89.25 257.63 88.85 246.43 88.32 235.23 92.09 219.83 106.01 217.8 115.42 218.47 124.75 216.97 133.99 212.91 143.16 206.17 152.26 196.97 161.3 185.8 170.28 173.33 179.23 160.4 188.14 147.83 197.03 136.4 205.91 126.71 214.8 119.15 223.7 113.85 232.64 110.67 241.63 109.26 250.68 109.04 259.8 109.35 269.01 109.49 278.33 108.8 287.75 106.75 297.3 103 306.98 97.39 316.8 90.02 326.77 81.17 336.89 71.26 347.18 60.84 357.62 50.47 368.23 40.68 384.45 28.18 389.91 24.45" stroke-dasharray="33 38" transform="rotate(0, 400, 400)" opacity="0.97"></path><path d="M387.53 34.17Q395.66 38.52 403.86 44.35 412.14 51.69 420.52 60.42 429.01 70.26 437.63 80.77 446.4 91.42 455.31 101.64 464.4 110.89 473.66 118.69 483.11 124.73 492.76 128.86 502.61 131.15 512.66 131.9 522.91 131.57 533.37 130.75 544.04 130.15 554.91 130.46 565.97 132.28 577.22 136.09 588.65 142.15 600.24 150.49 611.98 160.87 623.86 172.83 635.85 185.72 647.95 198.74 660.12 211.08 672.35 221.95 684.62 230.72 696.9 236.95 709.16 240.5 721.39 241.5 725.98 253.09 729.92 264.68 733.08 276.27 735.36 287.85 736.67 299.44 736.98 311.03 736.28 322.62 734.59 334.21 731.97 345.8 728.49 357.39 724.28 368.98 719.48 380.57 714.23 392.16 708.72 403.75 703.11 415.34 697.6 426.93 692.37 438.52 687.57 450.11 683.39 461.7 679.94 473.29 677.34 484.88 675.68 496.47 675 508.06 675.34 519.65 676.69 531.23 678.99 542.82 682.17 554.41 686.13 566 690.74 577.59 695.85 589.18 701.29 600.77 706.88 612.36 700.07 627.81 693.15 638.45 678.85 640.9 664.08 629.09 656.37 617.72 648.47 605.83 640.36 595.32 632.03 587.95 623.48 585.17 614.7 587.93 605.71 596.63 596.48 611 587.04 630.16 577.39 652.68 567.53 676.78 557.47 700.45 547.22 721.72 536.8 738.84 526.22 750.49 515.5 755.95 504.64 755.12 493.67 748.62 482.6 737.69 471.45 724.04 460.23 709.73 448.98 696.9 437.7 687.57 426.41 683.38 415.12 685.46 403.87 694.27 395.75 699.08 387.53 708.99 379.18 722.28 370.7 736.88 362.09 750.63 353.33 761.46 344.44 767.67 335.41 768.04 326.23 762.04 316.92 749.78 307.47 732.07 297.89 710.3 288.19 686.25 278.38 661.95 268.45 639.4 258.43 620.42 248.33 606.4 238.14 598.17 227.9 595.96 217.6 599.32 207.26 607.23 196.89 618.17 186.51 630.35 176.12 641.85 165.74 650.85 155.38 655.84 145.05 655.74 134.76 650.05 124.51 638.87 114.32 622.89 104.19 603.3 94.13 581.66 93.23 570.54 92.35 559.42 91.53 548.3 90.79 537.18 90.15 526.07 89.63 514.95 89.26 503.83 89.05 492.71 88.99 481.59 89.1 470.47 89.37 459.36 89.79 448.24 90.34 437.12 91.02 426 91.79 414.88 92.63 403.77 93.52 392.65 94.42 381.53 95.31 370.41 96.16 359.29 96.93 348.17 97.61 337.05 98.17 325.94 98.59 314.82 98.86 303.7 98.98 292.58 98.93 281.46 98.71 270.34 98.35 259.23 97.84 248.11 101.5 232.65 115.04 229.39 124.2 228.45 133.27 225.05 142.27 219.05 151.19 210.58 160.03 200.03 168.81 188.02 177.53 175.28 186.2 162.62 194.84 150.78 203.44 140.43 212.02 132.03 220.6 125.81 229.18 121.76 237.78 119.66 255.12 119.48 272.63 120.06 281.52 119.21 290.5 116.9 299.59 112.84 308.79 106.97 318.12 99.4 327.59 90.42 337.2 80.48 346.96 70.1 356.86 59.82 366.93 50.15 382.34 37.84 387.53 34.17" stroke-dasharray="0 26" transform="rotate(5.235294117647059, 400, 400)" opacity="0.73"></path><path d="M385.51 43.87Q393.57 48.04 401.72 53.66 409.97 60.78 418.33 69.29 426.81 78.93 435.44 89.28 444.21 99.87 453.14 110.14 462.23 119.56 471.51 127.66 480.96 134.1 490.6 138.69 500.43 141.44 510.44 142.55 520.65 142.39 531.04 141.5 541.62 140.5 552.37 140.07 563.29 140.81 574.37 143.27 585.6 147.8 596.97 154.56 608.46 163.49 620.06 174.28 631.74 186.43 643.5 199.28 655.31 212.07 667.15 224.01 679 234.41 690.84 242.69 702.65 248.48 714.4 251.66 718.54 263.05 722.01 274.43 724.71 285.82 726.56 297.2 727.5 308.59 727.5 319.97 726.56 331.36 724.71 342.74 722.01 354.13 718.53 365.51 714.4 376.9 709.72 388.28 704.66 399.67 699.36 411.05 693.99 422.44 688.71 433.82 683.68 445.21 679.07 456.59 675 467.98 671.62 479.36 669.01 490.75 667.27 502.13 666.44 513.52 666.55 524.9 667.6 536.29 669.56 547.68 672.36 559.06 675.92 570.45 680.12 581.83 684.85 593.22 689.95 604.6 695.27 615.99 681.93 629.66 668.31 628.5 661.29 620.5 654.12 610.03 646.79 598.67 639.29 588.13 623.63 578.28 607.37 582.65 598.89 594.23 590.2 610.7 581.31 630.98 572.21 653.6 562.92 676.82 553.43 698.82 543.76 717.88 533.91 732.55 523.9 741.83 513.74 745.25 503.43 742.92 493 735.56 482.46 724.41 471.81 711.11 461.09 697.53 450.3 685.62 439.46 677.17 428.58 673.63 417.69 675.96 406.79 684.56 398.76 689.04 390.61 698.31 382.33 710.82 373.92 724.74 365.37 738.09 356.69 748.99 347.86 755.83 338.9 757.42 329.81 753.13 320.58 742.93 311.23 727.38 301.77 707.58 292.19 685.04 282.51 661.54 272.74 638.92 262.89 618.92 252.96 602.97 242.97 592.1 232.94 586.8 222.86 586.97 212.75 592 202.63 600.77 192.5 611.79 182.37 623.37 172.27 633.81 162.18 641.52 152.14 645.21 142.13 644.04 132.18 637.64 122.28 626.2 112.45 610.41 102.68 591.39 101.75 580.37 100.85 569.35 100.02 558.34 99.28 547.32 98.66 536.31 98.17 525.29 97.82 514.27 97.64 503.26 97.62 492.24 97.77 481.22 98.07 470.21 98.53 459.19 99.12 448.18 99.84 437.16 100.65 426.14 101.53 415.13 102.46 404.11 103.4 393.09 104.33 382.08 105.22 371.06 106.04 360.05 106.77 349.03 107.38 338.01 107.85 327 108.18 315.98 108.34 304.97 108.34 293.95 108.18 282.94 107.85 271.92 107.38 260.9 110.94 245.06 124.11 239.7 133.02 236.81 141.85 231.4 150.6 223.56 159.27 213.59 167.87 202.04 176.4 189.57 184.87 176.94 193.28 164.88 201.64 154.06 209.97 144.97 218.27 137.95 226.55 133.08 243.1 129.72 259.71 129.9 276.53 130.09 293.53 126.95 302.18 122.58 310.93 116.43 319.79 108.66 328.76 99.58 337.87 89.63 347.1 79.31 356.48 69.14 366.01 59.6 380.6 47.48 385.51 43.87" stroke-dasharray="18 12" transform="rotate(10.470588235294118, 400, 400)" opacity="0.97"></path><path d="M383.91 53.58Q391.92 57.56 400.04 62.97 408.27 69.86 416.62 78.13 425.1 87.54 433.72 97.72 442.49 108.21 451.43 118.49 460.52 128.05 469.78 136.43 479.21 143.27 488.82 148.34 498.6 151.58 508.55 153.12 518.67 153.26 528.96 152.44 539.41 151.22 550.01 150.22 560.75 150.05 571.63 151.28 582.63 154.33 593.74 159.48 604.94 166.81 616.22 176.16 627.57 187.21 638.96 199.43 650.39 212.16 661.82 224.69 673.24 236.29 684.63 246.31 695.97 254.23 707.24 259.73 710.92 270.84 713.93 281.95 716.19 293.06 717.64 304.17 718.22 315.28 717.93 326.39 716.78 337.5 714.79 348.61 712.02 359.72 708.56 370.83 704.51 381.94 699.97 393.05 695.09 404.16 690.01 415.27 684.86 426.38 679.81 437.49 674.99 448.6 670.55 459.71 666.62 470.82 663.3 481.93 660.7 493.04 658.89 504.15 657.92 515.26 657.82 526.37 658.6 537.48 660.22 548.59 662.66 559.7 665.82 570.81 669.63 581.92 673.97 593.03 661.05 608.47 644.09 590.77 637.1 580.44 629.96 572.02 615.13 568.49 599.77 579.32 591.78 593.33 583.59 611.36 575.22 632.22 566.66 654.44 557.91 676.41 548.98 696.49 539.87 713.24 530.58 725.49 521.14 732.52 511.54 734.06 501.79 730.42 491.91 722.37 481.9 711.13 471.78 698.25 461.57 685.44 451.27 674.45 440.9 666.84 430.48 663.9 420.01 666.47 409.52 674.86 401.55 679.02 393.46 687.66 385.23 699.42 376.87 712.64 368.38 725.55 359.76 736.44 351 743.8 342.11 746.48 333.11 743.78 323.98 735.54 314.74 722.12 305.4 704.36 295.96 683.51 286.43 661.1 276.82 638.79 267.15 618.21 257.42 600.79 247.63 587.65 237.81 579.5 227.97 576.55 218.1 578.51 208.23 584.64 198.37 593.81 188.52 604.61 178.69 615.5 168.89 624.94 159.14 631.57 149.43 634.29 139.77 632.42 130.17 625.7 120.64 614.34 111.17 599 110.22 588.13 109.31 577.26 108.49 566.39 107.76 555.51 107.16 544.64 106.7 533.77 106.39 522.9 106.24 512.03 106.26 501.16 106.44 490.28 106.79 479.41 107.28 468.54 107.91 457.67 108.66 446.8 109.51 435.92 110.43 425.05 111.39 414.18 112.37 403.31 113.34 392.44 114.27 381.56 115.13 370.69 115.9 359.82 116.56 348.95 117.09 338.08 117.47 327.2 117.69 316.33 117.74 305.46 117.63 294.59 117.36 283.72 116.92 272.84 120.41 256.39 133.22 248.28 141.89 243.31 150.48 235.96 158.99 226.49 167.42 215.37 175.77 203.21 184.06 190.71 192.28 178.56 200.44 167.43 208.55 157.83 216.61 150.15 232.62 141.92 248.58 139.02 264.56 140.51 280.61 141.25 288.7 139.87 296.86 136.9 305.09 132.2 313.4 125.77 321.8 117.81 330.3 108.65 338.92 98.7 347.65 88.46 356.51 78.42 365.5 69.03 379.27 57.12 383.91 53.58" stroke-dasharray="3 10" transform="rotate(15.705882352941178, 400, 400)" opacity="0.74"></path><path d="M382.77 63.28Q390.76 67.07 398.85 72.27 407.06 78.92 415.4 86.94 423.87 96.11 432.49 106.08 441.25 116.44 450.16 126.7 459.23 136.37 468.46 145 477.84 152.21 487.38 157.76 497.08 161.53 506.94 163.57 516.94 164.11 527.08 163.5 537.36 162.23 547.77 160.85 558.3 159.96 568.94 160.12 579.68 161.8 590.49 165.37 601.38 171.02 612.33 178.75 623.31 188.38 634.32 199.55 645.33 211.73 656.33 224.3 667.31 236.57 678.24 247.89 689.1 257.63 699.89 265.34 703.11 276.1 705.67 286.87 707.51 297.63 708.58 308.39 708.84 319.16 708.29 329.92 706.94 340.69 704.84 351.45 702.03 362.22 698.6 372.98 694.63 383.75 690.24 394.51 685.54 405.28 680.67 416.04 675.75 426.81 670.91 437.57 666.3 448.34 662.03 459.1 658.23 469.87 654.98 480.63 652.4 491.4 650.53 502.16 649.44 512.93 649.15 523.69 649.67 534.46 650.99 545.22 653.07 555.99 655.85 566.75 659.26 577.52 663.21 588.28 650.35 592.61 634.01 572.16 620.47 559.89 606.54 558.62 599.32 565.89 591.94 577.76 584.4 593.67 576.69 612.7 568.8 633.61 560.75 654.99 552.52 675.38 544.12 693.37 535.56 707.76 526.82 717.65 517.93 722.56 508.88 722.42 499.69 717.65 490.36 709.07 480.9 697.87 471.32 685.48 461.63 673.46 451.84 663.37 441.97 656.58 432.03 654.21 422.02 656.98 411.97 665.15 404.05 669.01 396 677.05 387.82 688.07 379.51 700.6 371.07 713.04 362.51 723.84 353.83 731.61 345.03 735.23 336.11 733.99 327.09 727.6 317.98 716.25 308.77 700.57 299.48 681.55 290.12 660.49 280.69 638.85 271.21 618.11 261.68 599.67 252.12 584.7 242.54 574.03 232.93 568.12 223.33 566.98 213.72 570.21 204.13 576.99 194.56 586.25 185.02 596.65 175.52 606.82 166.06 615.39 156.65 621.18 147.29 623.25 138 621.03 128.77 614.32 119.6 603.33 118.64 592.66 117.74 581.99 116.93 571.31 116.22 560.64 115.65 549.97 115.22 539.3 114.95 528.62 114.84 517.95 114.9 507.28 115.13 496.61 115.51 485.93 116.05 475.26 116.71 464.59 117.5 453.92 118.37 443.25 119.32 432.57 120.32 421.9 121.33 411.23 122.33 400.56 123.3 389.89 124.2 379.21 125.02 368.54 125.72 357.87 126.3 347.2 126.73 336.53 127.01 325.85 127.12 315.18 127.07 304.51 126.85 293.84 126.47 283.17 129.9 265.99 142.37 254.81 150.79 247.81 159.14 238.73 167.41 227.99 175.61 216.14 183.73 203.83 191.78 191.71 199.76 180.41 207.68 170.46 215.54 162.27 223.35 156.07 238.83 150.39 254.23 149.34 269.58 151.28 284.96 151.79 292.69 150.06 300.47 146.72 308.3 141.67 316.2 134.97 324.17 126.85 332.22 117.61 340.36 107.69 348.61 97.55 356.97 87.66 365.44 78.44 378.41 66.76 382.77 63.28" stroke-dasharray="29 23" transform="rotate(20.941176470588236, 400, 400)" opacity="0.48"></path><path d="M382.13 73Q390.09 76.6 398.16 81.58 406.36 87.99 414.68 95.74 423.13 104.64 431.72 114.38 440.45 124.58 449.33 134.78 458.34 144.52 467.51 153.36 476.81 160.93 486.26 166.95 495.84 171.26 505.56 173.86 515.4 174.88 525.37 174.61 535.45 173.46 545.64 171.9 555.92 170.49 566.28 169.77 576.72 170.24 587.21 172.32 597.76 176.29 608.34 182.3 618.93 190.29 629.53 200.06 640.12 211.23 650.68 223.3 661.2 235.67 671.66 247.72 682.04 258.81 692.34 268.4 695.11 278.75 697.24 289.1 698.68 299.46 699.39 309.81 699.36 320.17 698.57 330.52 697.06 340.88 694.85 351.23 692.02 361.59 688.62 371.94 684.75 382.3 680.51 392.65 676 403 671.33 413.36 666.63 423.71 662.02 434.07 657.6 444.42 653.51 454.78 649.83 465.13 646.67 475.48 644.1 485.84 642.19 496.19 640.99 506.55 640.53 516.9 640.81 527.26 641.84 537.61 643.59 547.96 646.01 558.32 649.03 568.67 652.6 579.03 649.18 587.71 636.45 572.77 630.22 563.23 623.92 554.94 610.98 548.44 597.73 553.6 590.88 563.69 583.9 577.72 576.78 594.97 569.51 614.43 562.09 634.89 554.52 655.05 546.79 673.6 538.89 689.37 530.85 701.4 522.64 709.03 514.29 711.98 505.78 710.35 497.14 704.64 488.35 695.69 479.44 684.63 470.4 672.8 461.24 661.59 451.98 652.38 442.62 646.37 433.18 644.54 423.66 647.49 414.07 655.44 406.19 659 398.18 666.47 390.04 676.77 381.79 688.6 373.41 700.54 364.92 711.19 356.32 719.26 347.61 723.69 338.81 723.76 329.91 719.1 320.94 709.75 311.88 696.14 302.76 679.05 293.58 659.55 284.34 638.9 275.07 618.42 265.77 599.42 256.44 583.07 247.1 570.3 237.76 561.71 228.42 557.57 219.09 557.75 209.78 561.79 200.5 568.88 191.26 577.99 182.05 587.91 172.9 597.4 163.79 605.26 154.75 610.46 145.76 612.17 136.84 609.91 127.98 603.5 127.02 593.09 126.13 582.69 125.35 572.28 124.67 561.87 124.14 551.47 123.75 541.06 123.52 530.65 123.46 520.25 123.56 509.84 123.83 499.43 124.25 489.03 124.82 478.62 125.52 468.21 126.34 457.81 127.24 447.4 128.22 436.99 129.24 426.59 130.28 416.18 131.31 405.77 132.31 395.36 133.25 384.96 134.11 374.55 134.86 364.14 135.49 353.74 135.98 343.33 136.31 332.92 136.48 322.52 136.49 312.11 136.34 301.7 136.02 291.29 135.54 280.89 134.93 270.48 143.27 265.93 151.53 259.15 159.72 250.35 167.83 239.92 175.87 228.36 183.84 216.26 191.73 204.23 199.55 192.89 207.3 182.74 214.98 174.2 230.15 163.77 245.17 158.87 260.01 160.2 274.78 162.51 289.54 161.54 304.35 156.4 311.81 151 319.32 144.05 326.88 135.77 334.51 126.49 342.21 116.62 349.99 106.61 357.87 96.88 365.85 87.84 378.03 76.4 382.13 73" stroke-dasharray="1 5" transform="rotate(26.176470588235293, 400, 400)" opacity="0.71"></path><path d="M382.01 82.7Q389.94 86.12 397.99 90.89 406.15 97.04 414.44 104.51 422.86 113.13 431.4 122.61 440.07 132.61 448.88 142.71 457.81 152.48 466.88 161.5 476.07 169.39 485.38 175.85 494.82 180.71 504.36 183.9 514.02 185.48 523.77 185.67 533.61 184.78 543.54 183.24 553.53 181.52 563.59 180.14 573.71 179.61 583.85 180.36 594.03 182.74 604.22 187 614.41 193.22 624.59 201.33 634.73 211.1 644.84 222.17 654.89 234.07 664.88 246.24 674.78 258.09 684.58 269.03 686.92 278.93 688.64 288.82 689.71 298.71 690.09 308.6 689.78 318.49 688.78 328.38 687.12 338.27 684.84 348.17 682 358.06 678.65 367.95 674.89 377.84 670.79 387.73 666.46 397.62 662 407.52 657.52 417.41 653.12 427.3 648.91 437.19 644.98 447.08 641.44 456.97 638.36 466.87 635.82 476.76 633.88 486.65 632.58 496.54 631.96 506.43 632.03 516.32 632.79 526.22 634.22 536.11 636.28 546 638.94 555.89 642.12 565.78 638.34 570.21 625.92 553.68 613.81 541.29 601.5 537.55 595.2 542.19 588.81 550.86 582.32 563.29 575.71 578.92 568.98 596.92 562.12 616.28 555.12 635.85 548 654.45 540.73 670.97 533.32 684.45 518 697.5 502.25 697.9 494.13 691.43 485.88 682.26 477.5 671.46 469 660.24 460.38 649.85 451.64 641.49 442.81 636.24 433.88 634.9 424.86 638.01 415.77 645.73 407.92 649.01 399.95 655.93 391.87 665.53 383.67 676.67 375.37 688.08 366.96 698.51 358.46 706.79 349.87 711.9 341.19 713.14 332.44 710.07 323.61 702.62 314.73 691.05 305.79 675.95 296.81 658.18 287.79 638.79 278.74 618.94 269.68 599.83 260.6 582.58 251.52 568.14 242.45 557.25 233.39 550.33 224.35 547.52 215.33 548.61 206.35 553.1 197.41 560.23 188.52 569.04 179.67 578.44 170.88 587.33 162.14 594.65 153.47 599.48 140.11 595.05 134.5 578.92 133.75 568.84 133.12 558.76 132.63 548.69 132.29 538.61 132.11 528.54 132.09 518.46 132.24 508.39 132.55 498.31 133.01 488.24 133.61 478.16 134.34 468.09 135.18 458.01 136.12 447.94 137.12 437.86 138.16 427.79 139.22 417.71 140.28 407.64 141.31 397.56 142.28 387.49 143.18 377.42 143.97 367.34 144.65 357.27 145.19 347.19 145.58 337.12 145.82 327.04 145.89 316.97 145.8 306.89 145.55 296.82 145.14 286.74 144.59 276.67 152.68 269.96 160.7 261.33 168.66 251.12 176.54 239.81 184.35 227.93 192.09 216.06 199.76 204.77 207.35 194.54 214.88 185.8 222.34 178.8 237.04 171.3 251.59 168.76 265.91 171.06 280.15 173.52 294.32 171.86 308.49 165.9 315.6 160.17 322.74 152.97 329.92 144.56 337.15 135.27 344.44 125.47 351.79 115.6 359.21 106.06 366.72 97.21 378.17 86.03 382.01 82.7" stroke-dasharray="25 13" transform="rotate(31.411764705882355, 400, 400)" opacity="0.34"></path><path d="M382.41 92.41Q390.31 95.65 398.31 100.19 406.42 106.08 414.66 113.26 423.01 121.58 431.48 130.78 440.07 140.55 448.78 150.52 457.6 160.27 466.53 169.41 475.57 177.58 484.72 184.47 493.96 189.86 503.3 193.65 512.73 195.85 522.23 196.59 531.8 196.11 541.44 194.76 551.12 192.96 560.85 191.16 570.6 189.85 580.38 189.47 590.17 190.42 599.95 193.01 609.71 197.42 619.45 203.7 629.15 211.79 638.8 221.44 648.38 232.33 657.88 244 667.3 255.95 676.62 267.62 678.54 277.02 679.87 286.41 680.58 295.81 680.66 305.2 680.1 314.59 678.92 323.99 677.15 333.38 674.81 342.77 671.97 352.17 668.68 361.56 665.03 370.96 661.09 380.35 656.94 389.74 652.69 399.14 648.42 408.53 644.22 417.92 640.21 427.32 636.45 436.71 633.04 446.11 630.04 455.5 627.54 464.89 625.58 474.29 624.2 483.68 623.44 493.08 623.31 502.47 623.82 511.87 624.96 521.26 626.69 530.65 628.99 540.05 631.79 549.44 627.62 551.63 615.48 535.97 603.78 528.92 591.95 531.43 585.93 539.02 579.84 550.15 573.66 564.38 567.38 581.01 561.01 599.21 554.53 617.96 547.93 636.24 541.22 653.02 534.39 667.38 527.43 678.56 513.05 687.6 498.29 685.12 490.69 678.07 482.95 668.82 475.1 658.36 467.12 647.79 459.03 638.22 450.82 630.71 434.06 627.35 417.01 636.03 409.2 639.03 401.29 645.42 393.27 654.34 385.15 664.79 376.93 675.66 368.63 685.81 360.25 694.19 351.78 699.87 343.25 702.13 334.66 700.51 326.02 694.85 317.32 685.27 308.59 672.18 299.83 656.26 291.04 638.35 282.24 619.47 273.43 600.67 264.61 582.99 255.81 567.37 247.02 554.6 238.25 545.25 229.51 539.61 220.79 537.74 212.12 539.37 203.49 544.03 194.91 551 186.38 559.41 177.91 568.3 169.49 576.68 161.13 583.61 148.26 584.32 142.86 570.67 142.14 560.99 141.56 551.31 141.12 541.63 140.83 531.94 140.7 522.26 140.73 512.58 140.93 502.9 141.28 493.22 141.78 483.53 142.41 473.85 143.17 464.17 144.04 454.49 144.99 444.81 146.01 435.12 147.08 425.44 148.16 415.76 149.24 406.08 150.29 396.4 151.29 386.71 152.22 377.03 153.06 367.35 153.78 357.67 154.37 347.99 154.82 338.3 155.12 328.62 155.26 318.94 155.24 309.26 155.06 299.58 154.72 289.9 154.24 280.21 162.09 271.63 169.88 261.57 177.6 250.45 185.26 238.8 192.84 227.13 200.36 215.96 207.81 205.78 215.18 196.96 229.7 185.32 244.03 178.97 258.06 179.6 271.95 182.28 285.66 184.01 299.28 182.78 312.86 174.46 326.46 161.74 333.29 153.23 340.15 143.94 347.04 134.25 353.99 124.54 360.99 115.2 368.06 106.56 378.81 95.65 382.41 92.41" stroke-dasharray="36 29" transform="rotate(36.64705882352941, 400, 400)" opacity="0.23"></path><path d="M383.32 102.11Q391.16 105.18 399.1 109.5 407.14 115.12 415.3 121.99 423.56 129.99 431.92 138.89 440.4 148.41 448.97 158.2 457.64 167.89 466.4 177.1 475.26 185.5 484.2 192.76 493.23 198.67 502.32 203.06 511.48 205.91 520.7 207.28 529.97 207.34 539.29 206.35 548.63 204.66 558 202.68 567.38 200.85 576.76 199.59 586.14 199.32 595.5 200.39 604.83 203.06 614.12 207.48 623.36 213.7 632.54 221.62 641.65 231.05 650.67 241.67 659.61 253.07 668.44 264.77 669.96 273.65 670.93 282.53 671.31 291.41 671.12 300.29 670.34 309.17 669 318.05 667.13 326.93 664.75 335.81 661.93 344.69 658.72 353.57 655.18 362.45 651.39 371.33 647.43 380.21 643.37 389.08 639.31 397.96 635.33 406.84 631.5 415.72 627.91 424.6 624.63 433.48 621.73 442.36 619.27 451.24 617.3 460.12 615.85 469 614.97 477.87 614.67 486.75 614.95 495.63 615.81 504.51 617.23 513.39 619.18 522.27 621.62 531.15 608.27 525.34 593.85 517.74 588.16 521.17 582.44 528.01 576.67 538.13 570.84 551.18 564.94 566.59 558.98 583.65 552.93 601.49 546.8 619.2 540.57 635.86 534.24 650.63 527.8 662.76 521.26 671.68 507.78 677.02 493.95 672.05 486.83 664.59 479.59 655.39 472.24 645.36 464.77 635.47 457.2 626.72 449.51 620.02 433.78 617.6 417.76 626.32 410.01 629.07 402.16 634.95 394.22 643.21 386.2 652.99 378.09 663.29 369.92 673.12 361.67 681.51 353.36 687.62 336.58 688.6 319.67 678.76 311.16 667.67 302.63 653.66 294.1 637.43 285.55 619.8 277.01 601.69 268.48 584.03 259.97 567.73 251.47 553.57 243 542.19 234.57 534.05 217.84 529.64 201.25 534.54 193.04 541.2 184.88 549.15 176.79 557.53 168.75 565.48 153.46 559.49 150.01 539.88 149.62 530.64 149.39 521.4 149.31 512.17 149.4 502.93 149.63 493.69 150.02 484.45 150.56 475.22 151.23 465.98 152.01 456.74 152.9 447.51 153.87 438.27 154.91 429.03 155.99 419.79 157.09 410.56 158.19 401.32 159.26 392.08 160.28 382.84 161.24 373.61 162.11 364.37 162.88 355.13 163.52 345.89 164.03 336.65 164.39 327.42 164.6 318.18 164.65 308.94 164.55 299.7 164.29 290.47 163.88 281.23 171.49 271.23 179.04 260.27 186.54 248.83 193.97 237.39 201.33 226.43 208.63 216.39 215.86 207.63 223.02 200.42 237.11 191.97 251.01 188.38 264.61 190.43 278.05 193.68 291.28 194.85 304.4 192.75 317.42 183.62 330.42 170.35 336.93 161.77 343.45 152.52 349.99 142.96 356.57 133.44 363.18 124.32 369.84 115.9 379.94 105.28 383.32 102.11" stroke-dasharray="2 19" transform="rotate(41.88235294117647, 400, 400)" opacity="0.13"></path><path d="M384.72 111.83Q400.32 118.81 416.31 130.73 432.68 146.97 449.4 165.76 466.45 184.58 483.79 200.74 501.37 212.1 519.14 217.66 537.05 217.87 555.01 214.57 572.97 210.61 590.85 209.16 608.57 212.86 626.06 223.17 643.24 239.91 660.05 261.22 661.82 277.95 661.47 294.69 659.03 311.42 654.68 328.16 648.75 344.89 641.71 361.63 634.07 378.36 626.43 395.1 619.37 411.83 613.42 428.57 609.03 445.3 606.55 462.04 606.16 478.77 607.88 495.51 608.76 513.67 594.94 507.82 583.98 511.31 572.98 527.07 561.85 553.54 550.53 586.43 538.96 619.72 527.08 647.16 514.86 663.8 502.26 667.35 489.25 658.73 475.82 641.99 461.97 623.28 447.71 609.43 433.04 606.14 417.99 616.61 402.56 624.5 386.82 641.24 370.82 660.43 354.61 675.18 338.25 679.89 321.77 671.5 305.24 650.3 288.71 619.72 272.22 585.42 255.82 553.87 239.55 530.7 223.44 519.36 207.53 520.27 191.82 530.85 167.94 544.46 158.46 525.24 157.96 507.72 158.07 490.21 158.79 472.7 160.05 455.18 161.77 437.67 163.81 420.15 166.01 402.64 168.21 385.12 170.24 367.61 171.95 350.1 173.2 332.58 173.9 315.07 174 297.56 173.5 280.04 188.19 257.99 202.66 236.13 216.88 217.73 230.84 205.11 244.55 199.02 258 198.61 271.22 201.64 284.21 205.14 297 206.16 309.64 202.5 322.16 193.22 334.6 178.82 347.03 161.02 359.48 142.3 372.03 125.23 384.72 111.83 384.72 111.83 384.72 111.83" stroke-dasharray="28 10" transform="rotate(47.11764705882353, 400, 400)" opacity="0.31"></path><path d="M386.55 121.53Q401.93 128.12 417.65 139.44 433.68 154.99 450 173.21 466.59 191.83 483.4 208.37 500.39 220.71 517.5 227.63 534.67 229.16 551.85 226.62 568.97 222.35 585.97 219.21 602.78 219.94 619.34 226.44 635.58 239.35 651.45 257.79 652.55 273.54 651.72 289.3 649 305.05 644.59 320.81 638.8 336.56 632.03 352.32 624.78 368.07 617.53 383.83 610.82 399.58 605.1 415.34 600.78 431.09 598.17 446.84 597.45 462.6 598.67 478.35 598.67 497.04 584.89 498.53 574.25 507.98 563.61 528.27 552.9 556.8 542.07 589 531.06 619.32 519.81 642.53 508.28 654.95 496.43 655.34 484.24 645.23 471.69 628.66 458.76 611.25 445.44 598.94 431.76 596.61 417.71 606.9 402.49 614.1 387.03 629.57 371.37 647.76 355.56 662.59 339.64 668.88 323.67 663.53 307.68 646.14 291.73 619.09 275.85 586.92 260.09 555.24 244.47 529.41 229.03 513.36 213.77 508.67 198.73 514.3 175.89 525.93 166.93 508.47 166.55 491.95 166.77 475.43 167.57 458.91 168.89 442.4 170.64 425.88 172.7 409.36 174.92 392.84 177.14 376.32 179.21 359.8 180.98 343.28 182.33 326.77 183.16 310.25 183.42 293.73 183.08 277.21 197.31 255.34 211.32 235.52 225.1 220.32 238.65 211.17 251.94 208.05 264.99 209.57 277.8 213.35 290.39 216.57 302.77 216.69 314.97 211.97 327.02 201.88 338.96 187.11 350.84 169.41 362.7 151.1 374.58 134.53 386.55 121.53 386.55 121.53 386.55 121.53" stroke-dasharray="14 38" transform="rotate(52.35294117647059, 400, 400)" opacity="0.60"></path><path d="M388.77 131.24Q403.86 137.44 419.23 148.15 434.86 162.97 450.72 180.55 466.78 198.88 483 215.67 499.33 228.87 515.72 237.13 532.13 240.12 548.49 238.67 564.75 234.61 580.86 230.42 596.75 228.72 612.38 231.69 627.69 240.56 642.64 255.34 643.13 270.18 641.87 285.03 638.92 299.87 634.48 314.71 628.85 329.56 622.38 344.4 615.49 359.25 608.64 374.09 602.26 388.94 596.78 403.78 592.55 418.63 589.83 433.47 588.82 448.32 589.57 463.16 588.74 483.09 575 492.75 564.66 507.51 554.36 531.16 544.04 560.49 533.66 590.99 523.15 617.79 512.46 636.7 501.56 645.16 490.41 642.8 478.97 631.59 467.23 615.42 455.15 599.36 442.74 588.55 429.99 587.1 416.91 597.2 401.97 603.73 386.85 617.98 371.59 635.13 356.23 649.85 340.81 657.45 325.38 654.83 309.98 641.09 294.64 617.73 279.4 588.23 264.29 557.3 249.34 529.86 234.57 509.97 220 500.02 205.63 500.24 183.84 507.52 175.41 490.79 175.17 475.27 175.5 459.75 176.38 444.22 177.75 428.7 179.53 413.18 181.6 397.66 183.82 382.14 186.06 366.62 188.16 351.1 189.98 335.58 191.42 320.05 192.38 304.53 192.79 289.01 192.63 273.49 206.38 253.05 219.94 236.1 233.29 224.44 246.41 218.68 259.3 218.17 271.96 221.15 284.38 225.24 296.57 227.88 308.56 226.95 320.35 221.15 331.97 210.29 343.46 195.24 354.84 177.71 366.16 159.86 377.46 143.82 388.77 131.24 388.77 131.24 388.77 131.24" stroke-dasharray="15 4" transform="rotate(57.58823529411765, 400, 400)" opacity="0.17"></path><path d="M391.32 140.94Q406.05 146.76 421 156.86 436.16 170.93 451.48 187.81 466.95 205.73 482.52 222.63 498.14 236.56 513.78 246.09 529.38 250.61 544.9 250.52 560.28 247.14 575.49 242.54 590.47 239.08 605.18 239.01 619.57 243.96 633.62 254.62 633.56 268.65 631.93 282.68 628.8 296.7 624.37 310.73 618.91 324.76 612.73 338.79 606.21 352.81 599.74 366.84 593.7 380.87 588.46 394.89 584.32 408.92 581.53 422.95 580.27 436.98 580.6 451 582.5 465.03 585.87 479.06 575.49 480.18 565.3 490.44 555.23 509.48 545.25 535.2 535.29 564.13 525.31 592.08 515.26 614.96 505.09 629.63 494.76 634.47 484.24 629.81 473.5 617.85 462.49 602.29 451.22 587.63 439.65 578.26 427.79 577.62 415.62 587.49 401.03 593.4 386.31 606.45 371.51 622.53 356.65 637 341.78 645.63 326.94 645.42 312.15 635.12 297.46 615.49 282.88 589.08 268.45 559.71 254.19 531.7 240.1 508.99 226.21 494.44 212.52 489.25 191.8 490.44 183.92 473.55 183.81 458.99 184.24 444.43 185.2 429.87 186.62 415.31 188.42 400.75 190.49 386.19 192.72 371.63 194.95 357.07 197.08 342.51 198.95 327.95 200.47 313.39 201.55 298.83 202.11 284.27 202.13 269.71 215.4 251.77 228.5 238.29 241.41 230.27 254.12 227.64 266.61 229.25 278.87 233.2 290.91 237.17 302.73 238.96 314.34 236.87 325.74 230.01 336.97 218.46 348.04 203.21 358.97 185.92 369.81 168.58 380.58 153.1 391.32 140.94 391.32 140.94 391.32 140.94" stroke-dasharray="7 42" transform="rotate(62.82352941176471, 400, 400)" opacity="0.38"></path><path d="M394.12 150.65Q408.41 156.08 422.88 165.57 437.49 178.86 452.22 194.98 467.04 212.4 481.9 229.26 496.78 243.76 511.62 254.44 526.39 260.51 541.05 261.97 555.55 259.7 569.86 255.3 583.93 250.8 597.73 248.36 611.23 249.79 624.4 256.28 623.86 269.59 621.9 282.89 618.64 296.2 614.25 309.51 608.97 322.82 603.1 336.13 596.94 349.44 590.85 362.75 585.14 376.06 580.13 389.37 576.1 402.68 573.27 415.99 571.79 429.29 571.74 442.6 573.12 455.91 575.86 469.22 565.73 476.13 555.79 491.27 546 513.34 536.31 539.8 526.69 567.23 517.08 591.96 507.44 610.74 497.74 621.34 487.94 622.96 477.99 616.44 467.87 604.08 457.55 589.31 447 576.06 436.22 568.06 425.18 568.16 413.88 577.79 399.7 583.1 385.45 595.01 371.16 610 356.86 624.07 342.58 633.47 328.36 635.33 314.23 628.21 300.21 612.26 286.32 589.24 272.59 562.11 259.02 534.5 245.63 510.07 232.43 491.83 219.41 481.62 206.59 479.83 193.95 485.31 192.96 471.65 192.46 457.99 192.48 444.33 193.01 430.67 194.04 417.01 195.5 403.35 197.32 389.69 199.39 376.04 201.6 362.38 203.84 348.72 205.97 335.06 207.88 321.4 209.48 307.74 210.66 294.08 211.37 280.42 211.57 266.77 224.36 252.13 237 242.41 249.47 237.9 261.76 237.96 273.84 241.15 285.71 245.52 297.38 249 308.83 249.73 320.07 246.41 331.11 238.52 341.97 226.38 352.65 211.02 363.18 194.05 373.58 177.26 389 156.51 394.12 150.65" stroke-dasharray="9 28" transform="rotate(68.05882352941175, 400, 400)" opacity="0.73"></path><path d="M397.09 160.36Q410.88 165.42 424.79 174.29 438.8 186.79 452.88 202.1 466.99 218.91 481.11 235.59 495.2 250.49 509.22 262.18 523.14 269.72 536.93 272.84 550.54 272.01 563.96 268.37 577.13 263.57 590.05 259.53 608.34 265.73 611.8 286.08 608.45 298.77 604.13 311.46 599.05 324.15 593.48 336.84 587.68 349.53 581.95 362.22 576.57 374.91 571.8 387.6 567.9 400.29 565.04 412.98 563.38 425.67 562.99 438.36 563.9 451.05 566.05 463.74 556.17 475.84 546.48 494.69 536.96 518.43 527.56 544.36 518.25 569.36 508.99 590.39 499.74 605.03 490.46 611.85 481.12 610.7 471.7 602.75 462.15 590.31 452.45 576.48 442.57 564.65 432.51 557.95 422.23 558.71 411.73 568.07 398.04 572.82 384.31 583.63 370.59 597.52 356.9 611.08 343.26 620.99 329.7 624.6 316.25 620.35 302.93 607.95 289.74 588.48 276.71 564.12 263.85 537.81 251.17 512.76 238.66 491.91 226.33 477.45 214.18 470.48 202.2 470.89 201.37 458.05 201.03 445.21 201.18 432.37 201.81 419.53 202.91 406.69 204.4 393.85 206.23 381.01 208.29 368.17 210.48 355.33 212.7 342.49 214.84 329.65 216.78 316.81 218.43 303.97 219.72 291.13 220.56 278.29 220.94 265.45 233.25 254.61 245.43 248.64 257.45 247.27 269.31 249.46 280.98 253.63 292.46 257.94 303.75 260.58 314.84 260.08 325.73 255.52 336.42 246.68 346.92 234.04 357.24 218.69 367.4 202.1 377.42 185.91 392.2 165.99 397.09 160.36" stroke-dasharray="8 10" transform="rotate(73.29411764705883, 400, 400)" opacity="0.72"></path><path d="M400.15 170.07Q413.36 174.76 426.66 183.01 440 194.7 453.37 209.15 466.74 225.26 480.08 241.62 493.35 256.73 506.54 269.24 519.6 278.14 532.51 282.95 545.25 283.78 557.78 281.38 570.08 276.97 582.13 272.17 598.98 274.42 601.63 292.34 598.23 304.5 594 316.66 589.14 328.82 583.87 340.98 578.43 353.14 573.05 365.3 567.99 377.46 563.47 389.62 559.7 401.78 556.84 413.94 555.03 426.1 554.35 438.26 554.83 450.42 556.44 462.58 546.82 478.82 537.4 500.01 528.14 524.02 519.03 548.29 510.02 570.14 501.08 587.22 492.18 597.84 483.3 601.26 474.39 597.81 465.43 588.85 456.4 576.61 447.26 563.84 437.99 553.42 428.58 547.95 419 549.3 409.25 558.37 396.1 562.59 382.96 572.35 369.86 585.14 356.82 598.06 343.86 608.25 330.99 613.29 318.25 611.57 305.64 602.51 293.17 586.62 280.86 565.42 268.72 541.17 256.74 516.56 244.93 494.25 233.28 476.55 221.8 465.01 210.48 460.26 209.83 448.15 209.64 436.03 209.91 423.92 210.64 411.8 211.79 399.69 213.32 387.58 215.14 375.46 217.18 363.35 219.35 351.24 221.55 339.12 223.68 327.01 225.64 314.89 227.34 302.78 228.71 290.67 229.69 278.55 230.23 266.44 242.06 259.52 253.76 257.02 265.33 258.23 276.75 261.9 288.01 266.45 299.1 270.24 310.01 271.77 320.73 269.93 331.27 264.15 341.61 254.46 351.78 241.45 361.76 226.2 371.58 210.07 381.23 194.52 395.45 175.46 400.15 170.07" stroke-dasharray="10 19" transform="rotate(78.52941176470588, 400, 400)" opacity="0.31"></path><path d="M403.2 179.77Q415.78 184.1 428.4 191.74 441.04 202.61 453.66 216.16 466.25 231.49 478.78 247.37 491.22 262.51 503.56 275.64 515.76 285.73 527.8 292.17 539.66 294.79 551.32 293.97 562.77 290.57 573.97 285.81 589.45 285.49 591.4 301.51 587.98 313.2 583.88 324.9 579.25 336.6 574.28 348.29 569.18 359.99 564.16 371.69 559.41 383.39 555.13 395.08 551.5 406.78 548.67 418.48 546.75 430.18 545.81 441.87 545.91 453.57 547.02 465.27 537.68 484.29 528.53 506.35 519.55 529.35 510.71 551.03 502 569.24 493.37 582.3 476.29 586.76 459.25 574.8 450.68 563.01 442.05 551.39 433.34 542.37 424.52 538.03 415.58 539.9 406.5 548.66 393.96 552.39 381.46 561.14 369.03 572.84 356.67 585.04 344.42 595.29 332.27 601.44 320.25 601.9 308.37 595.9 296.64 583.52 285.05 565.71 273.62 544.11 262.35 520.86 251.24 498.26 240.28 478.49 229.47 463.32 218.8 453.84 218.33 442.37 218.29 430.89 218.69 419.41 219.5 407.93 220.71 396.45 222.25 384.98 224.06 373.5 226.08 362.02 228.22 350.54 230.38 339.07 232.49 327.59 234.46 316.11 236.2 304.64 237.65 293.16 238.75 281.68 239.44 270.2 250.77 266.99 262 267.42 273.11 270.52 284.09 274.98 294.92 279.35 305.61 282.22 316.13 282.43 326.48 279.22 336.66 272.29 346.67 261.86 356.5 248.61 366.15 233.56 375.64 217.97 384.97 203.1 398.67 184.93 403.2 179.77" stroke-dasharray="25 29" transform="rotate(83.76470588235294, 400, 400)" opacity="0.60"></path><path d="M406.15 189.48Q418.05 193.46 429.95 200.49 441.84 210.53 453.68 223.16 465.47 237.62 477.17 252.9 488.77 267.86 500.26 281.38 511.6 292.46 522.78 300.38 533.79 304.8 544.6 305.8 555.21 303.88 565.6 299.9 579.78 298.44 581.11 313.12 577.72 324.4 573.76 335.68 569.37 346.96 564.71 358.23 559.94 369.51 555.26 380.79 550.82 392.07 546.79 403.35 543.31 414.62 540.52 425.9 538.52 437.18 537.38 448.46 537.14 459.74 537.8 471.01 528.75 491.29 519.89 512.82 511.19 533.71 502.64 552.11 494.22 566.44 485.89 575.6 477.65 579.08 469.47 577.09 461.32 570.48 453.19 560.69 445.05 549.57 436.88 539.17 420.34 531 403.56 538.96 391.68 542.22 379.87 550.02 368.14 560.63 356.51 572.04 344.98 582.16 333.58 589.1 322.3 591.38 311.16 588.11 300.16 579.06 289.31 564.72 278.6 546.2 268.04 525.1 257.62 503.28 247.34 482.68 237.2 465.04 227.18 451.72 226.88 440.79 226.99 429.87 227.5 418.95 228.4 408.02 229.64 397.1 231.19 386.18 232.99 375.25 234.98 364.33 237.07 353.41 239.2 342.48 241.28 331.56 243.24 320.63 245.01 309.71 246.52 298.79 253.55 282.38 270.12 279.54 280.76 283.78 291.29 288.36 301.69 292.03 311.96 293.67 322.09 292.44 332.06 287.87 341.88 279.9 351.54 268.88 361.04 255.53 370.38 240.8 379.55 225.81 388.57 211.65 401.79 194.39 406.15 189.48" stroke-dasharray="19 7" transform="rotate(89, 400, 400)" opacity="0.94"></path><path d="M408.93 199.19Q420.1 202.83 431.25 209.26 442.35 218.48 453.39 230.15 464.35 243.68 475.22 258.22 485.98 272.83 496.62 286.49 507.11 298.3 517.45 307.51 527.62 313.63 537.61 316.54 547.41 316.43 557.01 313.84 569.96 312.6 570.78 326.48 567.45 337.35 563.65 348.22 559.51 359.1 555.15 369.97 550.72 380.84 546.36 391.72 542.23 402.59 538.44 413.46 535.13 424.34 532.4 435.21 530.35 446.09 529.03 456.96 528.5 467.83 528.77 478.71 520.04 498.75 511.48 518.52 503.08 536.45 494.82 551.15 478.71 564.65 462.88 563.77 455.08 556.28 447.32 546.59 439.57 536.31 431.82 527.17 416.24 520.97 400.51 529.24 389.34 532.08 378.26 538.97 367.27 548.52 356.38 559.08 345.61 568.9 334.96 576.35 324.43 580.09 314.04 579.17 303.78 573.18 293.65 562.26 283.66 547.05 273.81 528.68 264.08 508.57 254.47 488.32 244.99 469.49 235.62 453.5 235.49 443.07 235.74 432.63 236.36 422.2 237.32 411.77 238.6 401.33 240.16 390.9 241.93 380.47 243.87 370.04 245.92 359.6 247.99 349.17 250.04 338.74 251.99 328.31 253.77 317.87 255.33 307.44 262.26 292.98 278.13 292.98 288.29 297.58 298.35 301.67 308.31 304.22 318.15 304.41 327.87 301.7 337.45 295.85 346.9 286.98 356.21 275.54 365.37 262.22 374.38 247.91 383.24 233.58 391.95 220.18 404.72 203.85 408.93 199.19" stroke-dasharray="15 42" transform="rotate(94.23529411764706, 400, 400)" opacity="0.43"></path><path d="M411.45 208.9Q421.86 212.2 432.22 218.05 442.52 226.45 452.74 237.15 462.88 249.69 472.92 263.39 482.84 277.45 492.64 291.03 502.3 303.29 511.81 313.51 521.17 321.16 530.36 325.93 539.38 327.79 548.22 327 560.02 327.16 560.4 340.69 557.17 351.15 553.55 361.61 549.66 372.07 545.6 382.53 541.5 392.99 537.47 403.44 533.62 413.9 530.08 424.36 526.94 434.82 524.3 445.27 522.22 455.73 520.78 466.19 520.01 476.65 519.93 487.1 511.53 505.58 503.29 522.61 495.2 537.03 487.25 547.9 471.76 554.9 456.55 549.83 449.08 541.89 441.67 532.58 434.29 523.3 426.93 515.43 412.22 511.04 397.45 519.54 387.03 521.97 376.7 528.01 366.47 536.53 356.35 546.19 346.34 555.56 336.45 563.26 326.68 568.09 317.03 569.13 307.51 565.86 298.11 558.16 288.83 546.34 279.67 531.09 270.63 513.42 261.69 494.55 252.86 475.81 244.13 458.47 244.17 448.49 244.55 438.51 245.26 428.53 246.28 418.54 247.59 408.56 249.13 398.58 250.88 388.6 252.77 378.61 254.75 368.63 256.78 358.65 258.77 348.67 260.69 338.68 262.47 328.7 264.07 318.72 270.86 305.69 286.02 307.19 295.68 311.44 305.26 314.51 314.76 315.64 324.16 314.28 333.45 310.12 342.63 303.12 351.69 293.53 360.63 281.84 369.44 268.7 378.12 254.91 386.65 241.31 395.06 228.68 407.39 213.3 411.45 208.9" stroke-dasharray="20 18" transform="rotate(99.47058823529412, 400, 400)" opacity="0.19"></path><path d="M413.64 218.6Q423.26 221.59 432.82 226.86 442.31 234.45 451.71 244.17 461.02 255.68 470.23 268.43 479.33 281.78 488.31 295.03 497.16 307.46 505.87 318.39 514.44 327.28 522.87 333.74 545.96 341.21 550 354.77 546.88 364.78 543.46 374.79 539.83 384.8 536.07 394.81 532.29 404.82 528.57 414.83 525.02 424.84 521.72 434.85 518.76 444.86 516.21 454.87 514.14 464.88 512.6 474.89 511.64 484.9 511.26 494.91 503.22 510.76 495.33 524.41 487.57 535.08 479.94 542.24 465.08 543.66 450.51 535.43 443.37 527.43 436.29 518.76 422.29 505.23 408.36 499.26 401.42 502.5 394.47 509.83 384.82 511.9 375.26 517.15 365.81 524.67 356.46 533.41 347.22 542.2 338.09 549.9 329.08 555.48 320.17 558.09 311.38 557.15 302.7 552.38 294.12 543.83 285.65 531.87 277.28 517.13 269.01 500.5 260.83 482.97 252.73 465.63 252.92 456.08 253.42 446.52 254.21 436.97 255.28 427.42 256.6 417.87 258.13 408.32 259.83 398.77 261.67 389.22 263.59 379.67 265.54 370.12 267.48 360.57 269.36 351.02 271.13 341.48 272.74 331.93 279.36 319.84 293.78 321.56 302.93 324.85 312.01 326.52 321.03 326.05 329.97 323.12 338.82 317.62 347.58 309.66 356.24 299.55 364.79 287.79 373.23 274.97 381.55 261.8 389.76 248.98 397.84 237.16 409.72 222.75 413.64 218.6" stroke-dasharray="25 10" transform="rotate(104.70588235294117, 400, 400)" opacity="0.25"></path><path d="M415.43 228.31Q424.25 230.98 433 235.7 441.68 242.49 450.27 251.25 458.77 261.68 467.17 273.41 475.46 285.91 483.64 298.61 491.7 310.91 499.64 322.22 507.46 332.02 515.14 339.88 530.05 347.67 544.55 348.74 542.24 358.24 539.57 367.75 536.6 377.26 533.39 386.77 530.02 396.28 526.56 405.79 523.08 415.29 519.67 424.8 516.4 434.31 513.35 443.82 510.57 453.33 508.14 462.84 506.1 472.35 504.5 481.86 503.38 491.37 502.77 500.88 495.11 513.41 487.58 523.39 472.95 532.54 458.64 532.32 451.66 527.44 444.77 520.73 437.96 513.01 431.21 505.17 417.91 493.93 404.72 489.78 390.48 497.53 374.01 506.36 365.34 512.93 356.77 520.73 348.29 528.84 339.92 536.34 323.53 544.72 307.44 544.87 299.56 539.35 291.76 530.65 284.06 519.11 276.43 505.29 268.89 489.89 261.41 473.73 261.74 464.62 262.35 455.52 263.21 446.41 264.32 437.3 265.64 428.19 267.14 419.08 268.79 409.98 270.56 400.87 272.41 391.76 274.29 382.65 276.16 373.54 277.99 364.44 279.73 355.33 281.34 346.22 287.76 334.64 301.4 335.47 318.57 336.31 335.58 330.86 343.97 324.2 352.29 315.5 360.52 305.08 368.66 293.43 376.71 281.08 384.67 268.61 392.52 256.62 400.26 245.62 411.67 232.19 415.43 228.31" stroke-dasharray="11 15" transform="rotate(109.94117647058825, 400, 400)" opacity="0.98"></path><path d="M416.78 238.02Q432.75 244.58 448.41 258.38 463.71 278.36 478.64 301.83 493.14 325.07 507.21 344.31 520.83 356.65 534 360.83 529.13 378.73 523.33 396.62 517.06 414.52 510.78 432.41 504.97 450.31 500.08 468.2 496.47 486.09 494.43 503.99 480.05 519.26 466.1 523.77 452.55 518.24 439.35 505.92 426.46 491.89 413.82 481.77 401.38 480.38 389.06 490.41 373.01 495.66 357.31 508.19 341.98 522.66 326.99 533.37 312.35 535.69 298.02 527.19 283.98 508.17 270.19 481.52 271.35 464.25 273.39 446.98 276.17 429.7 279.46 412.43 283.02 395.16 286.58 377.88 289.86 360.61 292.63 343.34 308.88 348.29 325.02 346.81 340.99 337.42 356.74 320.64 372.23 298.79 387.42 275.35 402.28 254.08 416.78 238.02 416.78 238.02 416.78 238.02" stroke-dasharray="25 13" transform="rotate(115.1764705882353, 400, 400)" opacity="0.42"></path><path d="M417.64 247.73Q432.02 253.48 446.11 265.59 459.88 283.35 473.31 304.8 486.38 327.09 499.08 347.09 511.41 362.08 523.36 370.32 518.68 386.97 513.3 403.61 507.58 420.26 501.88 436.91 496.58 453.56 492.02 470.21 488.5 486.86 486.25 503.51 472.72 511.95 459.56 511.38 446.75 503.38 434.27 491.17 422.07 478.98 410.12 471.11 398.38 471.06 386.8 480.7 372.31 485.05 358.14 495.82 344.28 508.95 330.72 519.97 317.44 524.97 304.43 521.39 291.65 508.56 279.08 487.78 280.42 471.53 282.51 455.29 285.21 439.04 288.36 422.8 291.74 406.55 295.13 390.31 298.33 374.07 301.11 357.83 316.23 359.47 331.26 354.59 346.18 342.78 360.94 325.13 375.49 303.89 389.82 282.03 403.87 262.51 417.64 247.73 417.64 247.73 417.64 247.73" stroke-dasharray="14 20" transform="rotate(120.41176470588236, 400, 400)" opacity="0.59"></path><path d="M417.99 257.44Q430.82 262.43 443.4 272.9 455.69 288.43 467.69 307.65 479.39 328.45 490.78 348.4 501.87 365.11 512.66 376.75 508.23 392.03 503.29 407.32 498.11 422.6 492.98 437.89 488.19 453.18 483.98 468.46 480.59 483.75 478.21 499.04 465.57 501.62 453.26 497.3 441.24 488.02 429.51 476.64 418.04 466.48 406.8 460.73 395.77 461.81 384.91 471 371.96 474.52 359.28 483.61 346.86 495.26 334.69 506.06 322.74 512.85 311.01 513.24 299.46 506.03 288.08 491.41 289.56 476.3 291.66 461.2 294.27 446.09 297.25 430.99 300.44 415.88 303.65 400.78 306.72 385.68 309.47 370.57 323.43 368.59 337.34 360.62 351.16 347 364.87 329.04 378.44 308.8 391.83 288.67 405.02 270.94 417.99 257.44 417.99 257.44 417.99 257.44" stroke-dasharray="3 22" transform="rotate(125.64705882352942, 400, 400)" opacity="0.28"></path><path d="M417.82 267.14Q429.16 271.41 440.27 280.32 451.15 293.65 461.79 310.49 472.18 329.36 482.33 348.45 492.24 365.87 501.91 379.91 497.78 393.74 493.3 407.58 488.66 421.42 484.09 435.25 479.78 449.09 475.93 462.92 465.67 482.71 447.18 482.01 436.01 472.51 425.09 462.5 414.39 454.46 403.89 450.63 393.6 452.64 383.47 461.29 372.01 464.08 360.77 471.6 349.74 481.68 338.9 491.82 328.25 499.57 317.76 502.89 307.41 500.4 297.19 491.65 298.77 477.8 300.85 463.94 303.35 450.08 306.15 436.22 309.12 422.37 312.13 408.51 315.04 394.65 317.73 380.79 330.5 375.32 343.24 364.87 355.94 350.13 368.56 332.44 381.08 313.54 393.48 295.27 405.73 279.37 417.82 267.14 417.82 267.14 417.82 267.14" stroke-dasharray="38 33" transform="rotate(130.8823529411765, 400, 400)" opacity="0.35"></path><path d="M417.13 276.85Q427.04 280.44 436.77 287.88 446.3 299.07 455.64 313.45 464.79 330.05 473.75 347.6 482.53 364.7 491.13 379.95 487.35 392.27 483.33 404.6 479.23 416.92 475.19 429.24 471.36 441.56 467.89 453.88 458.35 469.92 441.33 465.98 431.06 457.14 420.99 448.88 411.1 442.95 401.4 440.82 391.87 443.54 382.5 451.59 372.47 453.73 362.62 459.79 352.93 468.27 343.38 477.4 333.98 485.38 324.69 490.57 311.79 483.61 310.09 463.01 312.45 450.5 315.04 437.99 317.79 425.48 320.57 412.97 323.3 400.46 325.87 387.95 337.43 379.58 348.98 367.42 360.51 352.31 371.99 335.44 383.41 318.17 394.75 301.88 411.56 282.32 417.13 276.85" stroke-dasharray="18 29" transform="rotate(136.1176470588235, 400, 400)" opacity="0.41"></path><path d="M415.94 286.56Q424.5 289.52 432.91 295.59 441.17 304.74 449.28 316.66 457.25 330.76 465.08 346.22 472.77 362.07 480.34 377.3 476.94 388.08 473.4 398.87 469.81 409.65 466.29 420.43 462.94 431.21 459.85 442 451.13 455.02 435.68 449.75 426.36 442.23 417.2 435.92 408.19 431.96 399.33 431.28 390.62 434.5 382.03 441.87 373.38 443.45 364.85 448.19 356.44 455.1 348.13 462.97 339.93 470.57 331.81 476.67 320.59 474.8 319.37 458.29 321.56 447.21 323.94 436.13 326.44 425.05 328.98 413.96 331.49 402.88 333.9 391.79 344.23 381.39 354.56 368.43 364.89 353.7 375.19 338.14 385.46 322.75 395.69 308.5 410.9 291.4 415.94 286.56" stroke-dasharray="4 24" transform="rotate(141.35294117647058, 400, 400)" opacity="0.70"></path><path d="M414.3 296.27Q421.57 298.65 428.73 303.46 435.79 310.7 442.74 320.24 449.58 331.74 456.33 344.72 462.98 358.58 469.54 372.65 466.56 381.9 463.49 391.16 460.42 400.41 457.4 409.67 454.5 418.92 451.8 428.18 443.99 438.89 430.2 433.86 413.76 424.8 397.67 422.02 382.28 429.4 367.46 436.83 360.27 442.23 353.16 448.7 331.85 450.35 332.84 430.81 335.07 421.2 337.35 411.59 339.62 401.98 341.84 392.37 350.91 381.01 360 368.18 369.09 354.5 378.17 340.65 387.24 327.33 396.3 315.16 409.81 300.47 414.3 296.27" stroke-dasharray="19 40" transform="rotate(146.58823529411765, 400, 400)" opacity="0.33"></path><path d="M412.24 305.97Q424.29 311.5 436.05 324.31 447.53 343.55 458.76 366.93 453.62 382.45 448.5 397.98 443.74 413.51 439.65 429.04 424.89 418.78 410.47 412.39 396.4 413.04 382.67 422.46 370.45 425.71 358.45 434.74 342.33 442.32 341.73 422.55 345.69 406.31 349.67 390.08 365.29 366.99 380.96 343.11 396.62 321.86 412.24 305.97 412.24 305.97 412.24 305.97" stroke-dasharray="4 1" transform="rotate(151.8235294117647, 400, 400)" opacity="0.12"></path><path d="M409.83 315.68Q419.63 319.74 429.26 328.98 438.71 343.13 448.01 361.15 443.78 373.82 439.61 386.49 435.68 399.16 432.17 411.83 419.71 404.99 407.49 401.98 395.5 404.32 383.75 412.76 373.81 414.83 364 421.23 350.87 427.68 350.63 412.13 354 398.85 357.42 385.57 370.47 365.28 383.57 345.65 396.7 328.63 409.83 315.68 409.83 315.68 409.83 315.68" stroke-dasharray="40 26" transform="rotate(157.05882352941177, 400, 400)" opacity="0.34"></path><path d="M407.13 325.39Q414.81 328.19 422.4 334.36 429.89 343.88 437.3 356.41 433.97 366.35 430.71 376.29 421.13 389.52 404.73 392.51 394.94 395.84 385.3 403.04 377.52 404.2 369.8 408.29 360.9 401.41 365.08 379.75 375.53 363.48 386.03 348.42 401.85 330.44 407.13 325.39" stroke-dasharray="0 17" transform="rotate(162.2941176470588, 400, 400)" opacity="0.19"></path><path d="M404.22 335.1Q415.52 340.51 426.64 353.67 421.81 368.36 417.32 383.03 402.14 384.03 387.27 393.34 372.13 392.49 372.67 373.66 388.39 351.53 404.22 335.1 404.22 335.1 404.22 335.1" stroke-dasharray="8 19" transform="rotate(167.52941176470588, 400, 400)" opacity="0.65"></path><path d="M401.19 344.8Q410.78 355.48 409.93 373.13 399.71 376.51 389.61 383.63 379.7 381.46 380.2 368.37 395.93 349.97 401.19 344.8" stroke-dasharray="2 17" transform="rotate(172.76470588235293, 400, 400)" opacity="0.75"></path></g></svg>